<svg width="80" height="64" viewBox="0 0 80 64" fill="none" xmlns="http://www.w3.org/2000/svg">
<ellipse cx="60.5" cy="44.9107" rx="19.5" ry="18.9107" fill="#FFA4B6" fill-opacity="0.79"/>
<g opacity="0.74">
<path d="M1.90625 19.0623H26.6875L28.5937 22.8748H3.8125L1.90625 19.0623ZM4.44792 26.6873H29.2292L31.1354 30.4998H6.35417L4.44792 26.6873ZM45.75 47.0207C47.8596 47.0207 49.5625 45.3178 49.5625 43.2082C49.5625 41.0986 47.8596 39.3957 45.75 39.3957C43.6404 39.3957 41.9375 41.0986 41.9375 43.2082C41.9375 45.3178 43.6404 47.0207 45.75 47.0207ZM49.5625 24.1457H43.2083V30.4998H54.5442L49.5625 24.1457ZM20.3333 47.0207C22.4429 47.0207 24.1458 45.3178 24.1458 43.2082C24.1458 41.0986 22.4429 39.3957 20.3333 39.3957C18.2237 39.3957 16.5208 41.0986 16.5208 43.2082C16.5208 45.3178 18.2237 47.0207 20.3333 47.0207ZM50.8333 20.3332L58.4583 30.4998V43.2082H53.375C53.375 47.4273 49.9692 50.8332 45.75 50.8332C41.5308 50.8332 38.125 47.4273 38.125 43.2082H27.9583C27.9583 47.4273 24.5271 50.8332 20.3333 50.8332C16.1142 50.8332 12.7083 47.4273 12.7083 43.2082H7.625V34.3123H12.7083V38.1248H14.64C16.0379 36.5744 18.0712 35.5832 20.3333 35.5832C22.5954 35.5832 24.6287 36.5744 26.0267 38.1248H38.125V15.2498H7.625C7.625 12.4286 9.88708 10.1665 12.7083 10.1665H43.2083V20.3332H50.8333Z" fill="black"/>
</g>
</svg>
