<svg width="83" height="67" viewBox="0 0 83 67" fill="none" xmlns="http://www.w3.org/2000/svg">
<path d="M82.5726 24.5065C82.5726 18.2262 76.1011 11.6564 76.1011 13.6262C76.1011 15.596 77.2981 41.7695 77.2981 41.7695L76.1011 58.8866C76.1011 59.4472 76.3675 59.9847 76.8415 60.3811C77.3156 60.7774 77.9586 61.0001 78.629 61.0001C79.2995 61.0001 79.9425 60.7774 80.4165 60.3811C80.8906 59.9847 81.1569 59.4472 81.1569 58.8866L80.4883 41.6722C80.4883 41.6722 82.5738 30.7878 82.5738 24.5075L82.5726 24.5065ZM13.4355 14.4082C13.4355 14.4082 13.577 18.8021 13.577 22.9742C13.577 26.1021 12.4395 28.0677 10.8204 28.855L10.8557 58.8856C10.8557 59.4461 10.5894 59.9837 10.1153 60.38C9.64126 60.7764 8.99828 60.9991 8.32783 60.9991C7.65739 60.9991 7.01441 60.7764 6.54033 60.38C6.06626 59.9837 5.79992 59.4461 5.79992 58.8856L6.82499 28.8602C5.19828 28.0793 4.05566 26.1106 4.05566 22.9742C4.05566 18.8021 4.19723 14.4082 4.19723 14.4082M8.81572 14.4082V24.5371V14.4082Z" fill="#F8F3F3"/>
<path d="M44.5021 55.807C58.4341 55.807 69.7282 46.3645 69.7282 34.7165C69.7282 23.0685 58.4341 13.626 44.5021 13.626C30.5702 13.626 19.2761 23.0685 19.2761 34.7165C19.2761 46.3645 30.5702 55.807 44.5021 55.807Z" fill="#F8F3F3"/>
<path d="M44.5074 47.5997C52.9882 47.5997 59.8632 41.8517 59.8632 34.7613C59.8632 27.6708 52.9882 21.9229 44.5074 21.9229C36.0266 21.9229 29.1516 27.6708 29.1516 34.7613C29.1516 41.8517 36.0266 47.5997 44.5074 47.5997Z" fill="#F8F3F3"/>
<path d="M59.6132 26.9455C59.6132 21.9455 55.1943 16.7149 55.1943 18.2832C55.1943 19.8514 56.0117 40.6895 56.0117 40.6895L55.1943 54.3173C55.1943 54.7636 55.3762 55.1916 55.6999 55.5072C56.0236 55.8227 56.4627 56 56.9205 56C57.3783 56 57.8173 55.8227 58.141 55.5072C58.4647 55.1916 58.6466 54.7636 58.6466 54.3173L58.19 40.6121C58.19 40.6121 59.6141 31.9464 59.6141 26.9464L59.6132 26.9455Z" stroke="black" stroke-width="1.11111" stroke-miterlimit="10"/>
<path d="M12.4048 18.9058C12.4048 18.9058 12.5014 22.404 12.5014 25.7256C12.5014 28.2159 11.7247 29.7808 10.6191 30.4076L10.6433 54.3165C10.6433 54.7628 10.4614 55.1907 10.1377 55.5063C9.81398 55.8219 9.37494 55.9991 8.91714 55.9991C8.45935 55.9991 8.0203 55.8219 7.69659 55.5063C7.37288 55.1907 7.19102 54.7628 7.19102 54.3165L7.89096 30.4118C6.78021 29.79 6 28.2226 6 25.7256C6 22.404 6.09666 18.9058 6.09666 18.9058M9.25028 18.9058V26.9699" stroke="black" stroke-width="1.11111" stroke-miterlimit="10" stroke-linecap="round" stroke-linejoin="round"/>
<path d="M33.6178 51.8657C43.1309 51.8657 50.8427 44.348 50.8427 35.0745C50.8427 25.8009 43.1309 18.2832 33.6178 18.2832C24.1047 18.2832 16.3928 25.8009 16.3928 35.0745C16.3928 44.348 24.1047 51.8657 33.6178 51.8657Z" stroke="black" stroke-width="1.11111" stroke-miterlimit="10" stroke-linecap="round" stroke-linejoin="round"/>
<path d="M33.6216 45.3313C39.4124 45.3313 44.1069 40.7551 44.1069 35.11C44.1069 29.4649 39.4124 24.8887 33.6216 24.8887C27.8307 24.8887 23.1362 29.4649 23.1362 35.11C23.1362 40.7551 27.8307 45.3313 33.6216 45.3313Z" stroke="black" stroke-width="1.11111" stroke-miterlimit="10" stroke-linecap="round" stroke-linejoin="round"/>
<circle cx="54.5" cy="47.5" r="19.5" fill="#FFA4B6" fill-opacity="0.79"/>
</svg>
