<svg width="80" height="66" viewBox="0 0 80 66" fill="none" xmlns="http://www.w3.org/2000/svg">
<ellipse cx="60.5" cy="46.9107" rx="19.5" ry="18.9107" fill="#FFA4B6" fill-opacity="0.79"/>
<path d="M11.1199 53.375L7.56152 49.8167L33.6136 23.7646C32.8511 21.9854 32.7452 19.9733 33.2959 17.7281C33.8466 15.483 35.0539 13.4708 36.9178 11.6917C39.1629 9.44653 41.6622 8.13333 44.4157 7.75208C47.1692 7.37083 49.4143 8.04861 51.1511 9.78542C52.8879 11.5222 53.5657 13.7674 53.1844 16.5208C52.8032 19.2743 51.49 21.7736 49.2449 24.0187C47.4657 25.8826 45.4535 27.0899 43.2084 27.6406C40.9633 28.1913 38.9511 28.0854 37.1719 27.3229L33.9949 30.5L53.3115 49.8167L49.7532 53.375L30.4365 34.1854L11.1199 53.375ZM18.6178 31.6438L10.9928 24.0187C8.70527 21.7312 7.56152 18.999 7.56152 15.8219C7.56152 12.6448 8.70527 9.9125 10.9928 7.625L26.7511 23.5104L18.6178 31.6438Z" fill="black" fill-opacity="0.8"/>
</svg>
