<svg width="110" height="48" viewBox="0 0 110 48" fill="none" xmlns="http://www.w3.org/2000/svg">
<path d="M16.608 36.544C13.088 36.544 10.256 35.664 8.112 33.904C6 32.144 4.944 29.424 4.944 25.744C4.944 22.928 5.504 20.256 6.624 17.728C7.744 15.168 9.232 12.832 11.088 10.72C12.976 8.608 15.056 6.8 17.328 5.296C16.08 5.136 14.816 4.976 13.536 4.816C12.256 4.656 10.992 4.576 9.744 4.576C8.304 4.576 7.008 4.768 5.856 5.152C4.736 5.536 3.68 6.272 2.688 7.36C2.4 7.68 2.176 7.968 2.016 8.224C1.856 8.48 1.776 8.832 1.776 9.28C1.776 10.016 1.904 10.544 2.16 10.864C2.416 11.184 2.72 11.392 3.072 11.488C3.424 11.584 3.76 11.648 4.08 11.68C4.4 11.712 4.608 11.808 4.704 11.968C4.672 12.064 4.56 12.144 4.368 12.208C4.176 12.24 4.016 12.256 3.888 12.256C3.408 12.256 2.992 12.144 2.64 11.92C2.32 11.696 2.032 11.488 1.776 11.296C1.552 11.072 1.344 10.96 1.152 10.96C1.088 10.96 1.024 10.992 0.96 11.056C0.928 11.12 0.864 11.152 0.768 11.152C0.512 11.152 0.368 10.976 0.336 10.624C0.304 10.24 0.288 9.984 0.288 9.856C0.288 9.504 0.432 9.104 0.72 8.656C1.008 8.208 1.264 7.856 1.488 7.6C2.864 5.936 4.336 4.768 5.904 4.096C7.504 3.424 9.36 3.088 11.472 3.088C12.848 3.088 14.208 3.184 15.552 3.376C16.896 3.536 18.24 3.728 19.584 3.952C21.152 3.088 22.816 2.448 24.576 2.032C26.336 1.584 28.096 1.36 29.856 1.36C30.88 1.36 31.952 1.472 33.072 1.696C34.192 1.888 35.232 2.224 36.192 2.704C37.184 3.184 37.984 3.84 38.592 4.672C39.2 5.504 39.504 6.544 39.504 7.792C39.504 8.784 39.328 9.76 38.976 10.72C38.976 10.848 38.944 10.96 38.88 11.056C38.848 11.12 38.8 11.2 38.736 11.296C38.512 11.712 38.288 12.096 38.064 12.448C37.872 12.768 37.488 12.928 36.912 12.928C36.496 12.928 36.288 12.704 36.288 12.256C36.288 12.096 36.288 11.936 36.288 11.776C36.32 11.584 36.352 11.424 36.384 11.296C33.824 9.888 31.04 8.72 28.032 7.792C25.056 6.832 22.128 6.096 19.248 5.584C17.776 6.672 16.352 7.968 14.976 9.472C13.6 10.976 12.352 12.624 11.232 14.416C10.144 16.176 9.28 18.016 8.64 19.936C8 21.856 7.68 23.76 7.68 25.648C7.68 27.792 8.16 29.584 9.12 31.024C10.08 32.464 11.376 33.536 13.008 34.24C14.64 34.944 16.48 35.296 18.528 35.296C20.288 35.296 22.064 35.024 23.856 34.48C25.68 33.968 27.408 33.248 29.04 32.32C30.672 31.36 32.096 30.256 33.312 29.008C34.176 28.112 35.056 27.056 35.952 25.84C36.88 24.624 37.584 23.424 38.064 22.24C38.064 22.208 38.096 22.112 38.16 21.952C38.256 21.792 38.32 21.712 38.352 21.712C38.416 21.712 38.448 21.808 38.448 22C38.48 22.192 38.496 22.304 38.496 22.336C38.496 22.496 38.48 22.864 38.448 23.44C38.448 23.984 38.416 24.336 38.352 24.496C37.904 25.904 37.04 27.248 35.76 28.528C34.512 29.776 33.056 30.912 31.392 31.936C29.76 32.96 28.08 33.824 26.352 34.528C24.656 35.232 23.12 35.728 21.744 36.016C20.912 36.176 20.064 36.304 19.2 36.4C18.336 36.496 17.472 36.544 16.608 36.544ZM36.768 9.184C36.8 8.992 36.816 8.8 36.816 8.608C36.848 8.416 36.864 8.208 36.864 7.984C36.864 6.544 36.464 5.424 35.664 4.624C34.864 3.792 33.872 3.216 32.688 2.896C31.504 2.544 30.304 2.368 29.088 2.368C27.808 2.368 26.48 2.528 25.104 2.848C23.728 3.136 22.464 3.6 21.312 4.24C23.968 4.752 26.592 5.424 29.184 6.256C31.776 7.088 34.304 8.064 36.768 9.184ZM35.9149 34.624C35.8509 34.624 35.8189 34.608 35.8189 34.576C35.8189 34.448 35.8829 34.32 36.0109 34.192C36.1069 34.096 36.1869 34 36.2509 33.904C36.5069 33.488 36.7629 32.944 37.0189 32.272C37.2749 31.568 37.5149 30.864 37.7389 30.16C37.9949 29.424 38.2029 28.816 38.3629 28.336C39.0029 26.448 39.6269 24.544 40.2349 22.624C40.8429 20.704 41.4989 18.8 42.2029 16.912C42.6189 15.792 43.1149 14.528 43.6909 13.12C44.2669 11.68 44.9389 10.24 45.7069 8.8C46.4749 7.36 47.3389 6.048 48.2989 4.864C49.2909 3.648 50.3949 2.672 51.6109 1.936C52.8269 1.2 54.1709 0.831998 55.6429 0.831998C57.2429 0.831998 58.2989 1.12 58.8109 1.696C59.3549 2.272 59.6269 2.864 59.6269 3.472C59.6269 3.728 59.5309 3.888 59.3389 3.952C59.1789 4.016 59.0989 3.936 59.0989 3.712C59.0989 3.04 58.8269 2.496 58.2829 2.08C57.7389 1.632 57.0989 1.408 56.3629 1.408C55.6909 1.408 54.9709 1.664 54.2029 2.176C53.4669 2.656 52.7629 3.232 52.0909 3.904C51.4189 4.576 50.8909 5.168 50.5069 5.68C49.2269 7.408 48.1869 9.008 47.3869 10.48C46.5869 11.952 45.8989 13.392 45.3229 14.8C44.7789 16.208 44.2509 17.696 43.7389 19.264C43.2589 20.832 42.6829 22.576 42.0109 24.496V24.688C42.0109 24.784 42.0269 24.832 42.0589 24.832C42.1549 24.736 42.2029 24.688 42.2029 24.688C43.1949 23.376 44.2029 22.096 45.2269 20.848C46.2829 19.568 47.5469 18.528 49.0189 17.728C49.2429 17.6 49.4989 17.472 49.7869 17.344C50.0749 17.184 50.3469 17.104 50.6029 17.104C51.0189 17.104 51.2589 17.296 51.3229 17.68C51.4189 18.032 51.4669 18.368 51.4669 18.688C51.4669 19.36 51.2429 20.24 50.7949 21.328C50.3789 22.384 49.8669 23.536 49.2589 24.784C48.6829 26.032 48.1709 27.264 47.7229 28.48C47.3069 29.664 47.0989 30.736 47.0989 31.696C47.0989 31.824 47.1149 31.984 47.1469 32.176C47.2109 32.336 47.3389 32.416 47.5309 32.416C47.8509 32.416 48.2829 32.16 48.8269 31.648C49.3709 31.104 49.8829 30.528 50.3629 29.92C50.8429 29.28 51.1469 28.816 51.2749 28.528C51.4029 28.656 51.4669 28.752 51.4669 28.816C51.4669 29.104 51.1789 29.568 50.6029 30.208C50.0589 30.816 49.4029 31.456 48.6349 32.128C47.8669 32.8 47.1309 33.376 46.4269 33.856C45.7229 34.336 45.2269 34.576 44.9389 34.576C44.6189 34.576 44.3949 34.336 44.2669 33.856C44.1709 33.376 44.1229 33.024 44.1229 32.8C44.1229 32.192 44.2509 31.424 44.5069 30.496C44.7949 29.568 45.1309 28.592 45.5149 27.568C45.9309 26.544 46.3309 25.568 46.7149 24.64C47.1309 23.712 47.4669 22.944 47.7229 22.336C47.8189 22.144 47.9629 21.808 48.1549 21.328C48.3469 20.816 48.4429 20.448 48.4429 20.224C48.4429 20.064 48.4109 19.888 48.3469 19.696C48.3149 19.504 48.1869 19.408 47.9629 19.408C47.6109 19.408 47.1789 19.616 46.6669 20.032C46.1869 20.448 45.8189 20.784 45.5629 21.04C44.1869 22.544 42.9869 24.256 41.9629 26.176C40.9709 28.064 40.1549 29.984 39.5149 31.936C39.4509 32.192 39.4029 32.368 39.3709 32.464C39.3389 32.56 39.1949 32.704 38.9389 32.896C38.8429 32.928 38.5389 33.088 38.0269 33.376C37.5469 33.664 37.0829 33.936 36.6349 34.192C36.1869 34.48 35.9469 34.624 35.9149 34.624ZM55.101 34.192C53.245 34.192 52.317 33.248 52.317 31.36C52.317 29.952 52.605 28.448 53.181 26.848C53.757 25.216 54.509 23.664 55.437 22.192C56.365 20.688 57.341 19.472 58.365 18.544C59.581 17.488 61.005 16.96 62.637 16.96C63.021 16.96 63.485 17.008 64.029 17.104C64.605 17.2 65.101 17.392 65.517 17.68C65.933 17.936 66.141 18.32 66.141 18.832C66.141 19.568 65.869 20.416 65.325 21.376C64.781 22.304 64.285 23.056 63.837 23.632C63.997 23.664 64.189 23.712 64.413 23.776C64.669 23.84 64.797 23.968 64.797 24.16C64.797 24.256 64.717 24.304 64.557 24.304C64.269 24.304 63.981 24.272 63.693 24.208C63.405 24.144 63.117 24.112 62.829 24.112C61.741 24.112 60.621 24.272 59.469 24.592C58.349 24.912 57.277 25.248 56.253 25.6C55.933 26.368 55.645 27.216 55.389 28.144C55.165 29.072 55.053 29.952 55.053 30.784C55.053 31.392 55.165 31.936 55.389 32.416C55.645 32.896 56.125 33.136 56.829 33.136C57.693 33.136 58.573 32.896 59.469 32.416C60.397 31.904 61.277 31.264 62.109 30.496C62.973 29.696 63.741 28.864 64.413 28C65.085 27.136 65.613 26.352 65.997 25.648C66.029 25.68 66.045 25.744 66.045 25.84C66.045 26.128 65.869 26.528 65.517 27.04C65.165 27.52 64.797 28 64.413 28.48C64.061 28.96 63.853 29.312 63.789 29.536C63.757 29.76 63.693 29.952 63.597 30.112C63.533 30.272 63.453 30.448 63.357 30.64C62.813 31.184 62.029 31.744 61.005 32.32C60.013 32.864 58.973 33.312 57.885 33.664C56.829 34.016 55.901 34.192 55.101 34.192ZM56.925 24.064C57.757 23.904 58.573 23.776 59.373 23.68C60.205 23.584 61.037 23.536 61.869 23.536C62.125 23.536 62.381 23.536 62.637 23.536C62.893 23.536 63.149 23.552 63.405 23.584C63.661 23.04 63.869 22.448 64.029 21.808C64.221 21.168 64.317 20.544 64.317 19.936C64.317 19.456 64.221 18.976 64.029 18.496C63.837 17.984 63.421 17.728 62.781 17.728C62.173 17.728 61.549 17.984 60.909 18.496C60.301 19.008 59.805 19.472 59.421 19.888C58.909 20.496 58.445 21.168 58.029 21.904C57.645 22.608 57.277 23.328 56.925 24.064ZM52.1794 47.344C51.9554 47.344 51.5874 47.264 51.0754 47.104C50.5314 46.944 50.0354 46.736 49.5874 46.48C49.1074 46.224 48.8674 45.968 48.8674 45.712C48.8674 45.648 48.9314 45.616 49.0594 45.616C49.1874 45.68 49.3154 45.712 49.4434 45.712C49.5074 45.712 49.6034 45.68 49.7314 45.616C49.6034 45.424 49.5394 45.232 49.5394 45.04C49.5394 44.88 49.5874 44.784 49.6834 44.752L49.2514 43.84C49.1874 43.68 49.0274 43.44 48.7714 43.12C48.5154 42.8 48.3874 42.576 48.3874 42.448C48.3874 42.256 48.4034 42.112 48.4354 42.016C49.1074 42.944 49.6994 43.68 50.2114 44.224C50.6914 44.768 51.2674 45.152 51.9394 45.376C52.6114 45.632 53.5554 45.76 54.7714 45.76C55.9554 45.76 57.1074 45.264 58.2274 44.272C59.3154 43.312 60.3554 42.064 61.3474 40.528C62.3074 39.024 63.1874 37.408 63.9874 35.68C64.7874 33.952 65.4754 32.336 66.0514 30.832C66.6274 29.296 67.0754 28.08 67.3954 27.184C67.9074 25.712 68.3874 24.24 68.8354 22.768C69.3154 21.296 69.7954 19.824 70.2754 18.352L67.6834 18.496C67.6514 18.464 67.6354 18.4 67.6354 18.304C67.6354 18.112 67.7634 17.888 68.0194 17.632C68.2754 17.376 68.5634 17.168 68.8834 17.008C69.2034 16.816 69.4434 16.72 69.6034 16.72H70.8514C71.2674 15.536 71.7634 14.224 72.3394 12.784C72.9474 11.344 73.6354 9.904 74.4034 8.464C75.2034 7.024 76.0994 5.712 77.0914 4.528C78.1154 3.312 79.2514 2.336 80.4994 1.6C81.7474 0.863999 83.1234 0.495999 84.6274 0.495999C84.7874 0.495999 85.1234 0.527999 85.6354 0.591998C86.1794 0.655999 86.6914 0.751999 87.1714 0.879997C87.6514 0.975998 87.8914 1.136 87.8914 1.36C87.8914 1.424 87.8754 1.456 87.8434 1.456C87.8434 1.456 87.8274 1.456 87.7954 1.456C87.7954 1.456 87.7954 1.44 87.7954 1.408L87.4594 1.36C87.5874 1.648 87.6514 2.032 87.6514 2.512C87.6514 2.736 87.6194 3.024 87.5554 3.376C87.5234 3.696 87.4594 3.952 87.3634 4.144C87.3314 4.208 87.2194 4.416 87.0274 4.768C86.8354 5.088 86.6434 5.392 86.4514 5.68C86.2594 5.968 86.1474 6.112 86.1154 6.112C86.0834 6.08 86.0674 6.048 86.0674 6.016C86.0674 5.984 86.1794 5.76 86.4034 5.344C86.6274 4.896 86.7394 4.448 86.7394 4C86.7394 3.264 86.4194 2.656 85.7794 2.176C85.1714 1.664 84.5314 1.408 83.8594 1.408C82.9634 1.408 82.0514 1.808 81.1234 2.608C80.2274 3.408 79.3634 4.448 78.5314 5.728C77.6994 7.008 76.9314 8.352 76.2274 9.76C75.5554 11.168 74.9634 12.512 74.4514 13.792C73.9394 15.04 73.5554 16.032 73.2994 16.768H75.7474C76.1954 16.768 76.6274 16.768 77.0434 16.768C77.4594 16.736 77.8754 16.704 78.2914 16.672L78.3874 16.72L78.2434 16.864C78.1474 16.96 77.9074 17.104 77.5234 17.296C77.1394 17.488 76.7554 17.68 76.3714 17.872C75.9874 18.032 75.7154 18.128 75.5554 18.16C75.1394 18.224 74.6754 18.256 74.1634 18.256C73.6834 18.256 73.2194 18.256 72.7714 18.256C72.4514 19.312 72.0994 20.368 71.7154 21.424C71.3634 22.448 71.0114 23.472 70.6594 24.496C69.8914 26.672 69.1074 28.832 68.3074 30.976C67.5394 33.12 66.6274 35.168 65.5714 37.12C64.4834 39.104 63.1234 40.976 61.4914 42.736C60.3074 44.016 58.9154 45.104 57.3154 46C55.6834 46.896 53.9714 47.344 52.1794 47.344Z" fill="white"/>
<path d="M83.7413 25.624V34H82.0613V28.552L79.8173 34H78.5453L76.2893 28.552V34H74.6093V25.624H76.5173L79.1813 31.852L81.8453 25.624H83.7413ZM90.5382 32.404H87.2022L86.6502 34H84.8862L87.8982 25.612H89.8542L92.8662 34H91.0902L90.5382 32.404ZM90.0822 31.06L88.8702 27.556L87.6582 31.06H90.0822ZM99.6921 25.624V26.98H97.4601V34H95.7801V26.98H93.5481V25.624H99.6921ZM102.598 26.98V29.08H105.418V30.412H102.598V32.632H105.778V34H100.918V25.612H105.778V26.98H102.598ZM108.049 34.084C107.745 34.084 107.493 33.992 107.293 33.808C107.101 33.616 107.005 33.38 107.005 33.1C107.005 32.82 107.101 32.588 107.293 32.404C107.493 32.212 107.745 32.116 108.049 32.116C108.345 32.116 108.589 32.212 108.781 32.404C108.973 32.588 109.069 32.82 109.069 33.1C109.069 33.38 108.973 33.616 108.781 33.808C108.589 33.992 108.345 34.084 108.049 34.084Z" fill="#FF8321"/>
</svg>
